# xmcd CD database file
#
# Track frame offsets:
#	150
#	23364
#	41586
#	52435
#	72766
#	84793
#	112138
#	124075
#	135475
#
# Disc length: 1958 seconds
#
# Revision: 0
# Processed by: cddbd v1.4PL0 Copyright (c) Steve Scherf et al.
# Submitted via: CDex 1.50Beta7
#
DISCID=7407a409
DTITLE=Sir Douglas Quintet - Whiter Shade Of Pale
DYEAR=1999
DGENRE=Blues
TTITLE0=Whiter Shade of Pale
TTITLE1=Mr. Pitiful
TTITLE2=I'll Go Crazy
TTITLE3=Next Time You See Me
TTITLE4=Night Train
TTITLE5=Kansas City
TTITLE6=Crazy Arms
TTITLE7=Anybody Going to San Antone¿
TTITLE8=Joel Blond
EXTD=YEAR: 1999
EXTT0=
EXTT1=
EXTT2=
EXTT3=
EXTT4=
EXTT5=
EXTT6=
EXTT7=
EXTT8=
PLAYORDER=
